ISO-10303-21;
HEADER;
/* Generated by software containing ST-Developer
 * from STEP Tools, Inc. (www.steptools.com) 
 */

FILE_DESCRIPTION(
/* description */ (''),
/* implementation_level */ '2;1');

FILE_NAME(
/* name */ 'Ramp.stp',
/* time_stamp */ '2026-05-18T14:28:21+02:00',
/* author */ ('25adoh'),
/* organization */ (''),
/* preprocessor_version */ 'ST-DEVELOPER v20.1',
/* originating_system */ 'Autodesk Inventor 2026',
/* authorisation */ '');

FILE_SCHEMA (('AUTOMOTIVE_DESIGN { 1 0 10303 214 3 1 1 }'));
ENDSEC;

DATA;
#10=MECHANICAL_DESIGN_GEOMETRIC_PRESENTATION_REPRESENTATION('',(#33,#34,
#35,#36,#37,#38,#39,#40,#41,#42,#43,#44,#45,#46,#47,#48,#49,#50),#915);
#11=GEOMETRICALLY_BOUNDED_WIREFRAME_SHAPE_REPRESENTATION('',(#12),#914);
#12=GEOMETRIC_CURVE_SET('Sketch4',(#18,#19,#20,#21,#22,#23,#24,#25,#26,
#27,#28,#29,#30,#16,#17,#31,#32,#905,#906,#907,#908,#909,#910,#911));
#13=SHAPE_REPRESENTATION_RELATIONSHIP('SRR','None',#922,#15);
#14=SHAPE_REPRESENTATION_RELATIONSHIP('SRR','None',#922,#11);
#15=ADVANCED_BREP_SHAPE_REPRESENTATION('',(#51),#914);
#16=TRIMMED_CURVE('',#63,(#896,PARAMETER_VALUE(3.14159265358979)),(#897,
PARAMETER_VALUE(4.01861913019249)),.T.,.PARAMETER.);
#17=TRIMMED_CURVE('',#64,(#899,PARAMETER_VALUE(3.14159265358979)),(#900,
PARAMETER_VALUE(3.92341631121926)),.T.,.PARAMETER.);
#18=POLYLINE('',(#869,#870));
#19=POLYLINE('',(#871,#872));
#20=POLYLINE('',(#873,#874));
#21=POLYLINE('',(#875,#876));
#22=POLYLINE('',(#877,#878));
#23=POLYLINE('',(#879,#880));
#24=POLYLINE('',(#881,#882));
#25=POLYLINE('',(#883,#884));
#26=POLYLINE('',(#885,#886));
#27=POLYLINE('',(#887,#888));
#28=POLYLINE('',(#889,#890));
#29=POLYLINE('',(#891,#892));
#30=POLYLINE('',(#893,#894));
#31=POLYLINE('',(#901,#902));
#32=POLYLINE('',(#903,#904));
#33=STYLED_ITEM('',(#931),#51);
#34=STYLED_ITEM('',(#932),#18);
#35=STYLED_ITEM('',(#932),#19);
#36=STYLED_ITEM('',(#932),#20);
#37=STYLED_ITEM('',(#932),#21);
#38=STYLED_ITEM('',(#933),#22);
#39=STYLED_ITEM('',(#933),#23);
#40=STYLED_ITEM('',(#933),#24);
#41=STYLED_ITEM('',(#933),#25);
#42=STYLED_ITEM('',(#933),#26);
#43=STYLED_ITEM('',(#933),#27);
#44=STYLED_ITEM('',(#933),#28);
#45=STYLED_ITEM('',(#933),#29);
#46=STYLED_ITEM('',(#933),#30);
#47=STYLED_ITEM('',(#933),#16);
#48=STYLED_ITEM('',(#933),#17);
#49=STYLED_ITEM('',(#933),#31);
#50=STYLED_ITEM('',(#933),#32);
#51=MANIFOLD_SOLID_BREP('Solid1',#539);
#52=CYLINDRICAL_SURFACE('',#574,117.091911764706);
#53=CYLINDRICAL_SURFACE('',#581,94.297794117647);
#54=CYLINDRICAL_SURFACE('',#582,94.297794117647);
#55=FACE_BOUND('',#98,.T.);
#56=FACE_BOUND('',#99,.T.);
#57=CIRCLE('',#567,94.297794117647);
#58=CIRCLE('',#575,117.091911764706);
#59=CIRCLE('',#576,117.091911764706);
#60=CIRCLE('',#578,94.297794117647);
#61=CIRCLE('',#580,94.297794117647);
#62=CIRCLE('',#583,94.297794117647);
#63=CIRCLE('',#595,94.297794117647);
#64=CIRCLE('',#596,117.091911764706);
#65=FACE_OUTER_BOUND('',#92,.T.);
#66=FACE_OUTER_BOUND('',#93,.T.);
#67=FACE_OUTER_BOUND('',#94,.T.);
#68=FACE_OUTER_BOUND('',#95,.T.);
#69=FACE_OUTER_BOUND('',#96,.T.);
#70=FACE_OUTER_BOUND('',#97,.T.);
#71=FACE_OUTER_BOUND('',#100,.T.);
#72=FACE_OUTER_BOUND('',#101,.T.);
#73=FACE_OUTER_BOUND('',#102,.T.);
#74=FACE_OUTER_BOUND('',#103,.T.);
#75=FACE_OUTER_BOUND('',#104,.T.);
#76=FACE_OUTER_BOUND('',#105,.T.);
#77=FACE_OUTER_BOUND('',#106,.T.);
#78=FACE_OUTER_BOUND('',#107,.T.);
#79=FACE_OUTER_BOUND('',#108,.T.);
#80=FACE_OUTER_BOUND('',#109,.T.);
#81=FACE_OUTER_BOUND('',#110,.T.);
#82=FACE_OUTER_BOUND('',#111,.T.);
#83=FACE_OUTER_BOUND('',#112,.T.);
#84=FACE_OUTER_BOUND('',#113,.T.);
#85=FACE_OUTER_BOUND('',#114,.T.);
#86=FACE_OUTER_BOUND('',#115,.T.);
#87=FACE_OUTER_BOUND('',#116,.T.);
#88=FACE_OUTER_BOUND('',#117,.T.);
#89=FACE_OUTER_BOUND('',#118,.T.);
#90=FACE_OUTER_BOUND('',#119,.T.);
#91=FACE_OUTER_BOUND('',#120,.T.);
#92=EDGE_LOOP('',(#354,#355,#356,#357));
#93=EDGE_LOOP('',(#358,#359,#360,#361));
#94=EDGE_LOOP('',(#362,#363,#364,#365));
#95=EDGE_LOOP('',(#366,#367,#368,#369,#370));
#96=EDGE_LOOP('',(#371,#372,#373,#374,#375,#376));
#97=EDGE_LOOP('',(#377,#378,#379,#380,#381,#382,#383,#384,#385,#386,#387,
#388));
#98=EDGE_LOOP('',(#389,#390,#391,#392));
#99=EDGE_LOOP('',(#393,#394,#395,#396));
#100=EDGE_LOOP('',(#397,#398,#399,#400));
#101=EDGE_LOOP('',(#401,#402,#403,#404));
#102=EDGE_LOOP('',(#405,#406,#407,#408));
#103=EDGE_LOOP('',(#409,#410,#411,#412,#413));
#104=EDGE_LOOP('',(#414,#415,#416,#417,#418,#419,#420,#421,#422,#423));
#105=EDGE_LOOP('',(#424,#425,#426,#427));
#106=EDGE_LOOP('',(#428,#429,#430));
#107=EDGE_LOOP('',(#431,#432,#433));
#108=EDGE_LOOP('',(#434,#435,#436,#437));
#109=EDGE_LOOP('',(#438,#439,#440,#441));
#110=EDGE_LOOP('',(#442,#443,#444,#445,#446,#447));
#111=EDGE_LOOP('',(#448,#449,#450,#451));
#112=EDGE_LOOP('',(#452,#453,#454,#455));
#113=EDGE_LOOP('',(#456,#457,#458,#459));
#114=EDGE_LOOP('',(#460,#461,#462,#463));
#115=EDGE_LOOP('',(#464,#465,#466,#467));
#116=EDGE_LOOP('',(#468,#469,#470,#471));
#117=EDGE_LOOP('',(#472,#473,#474,#475));
#118=EDGE_LOOP('',(#476,#477,#478,#479));
#119=EDGE_LOOP('',(#480,#481,#482,#483));
#120=EDGE_LOOP('',(#484,#485,#486,#487));
#121=LINE('',#734,#182);
#122=LINE('',#736,#183);
#123=LINE('',#738,#184);
#124=LINE('',#739,#185);
#125=LINE('',#742,#186);
#126=LINE('',#744,#187);
#127=LINE('',#745,#188);
#128=LINE('',#748,#189);
#129=LINE('',#750,#190);
#130=LINE('',#751,#191);
#131=LINE('',#754,#192);
#132=LINE('',#755,#193);
#133=LINE('',#758,#194);
#134=LINE('',#761,#195);
#135=LINE('',#764,#196);
#136=LINE('',#766,#197);
#137=LINE('',#768,#198);
#138=LINE('',#770,#199);
#139=LINE('',#772,#200);
#140=LINE('',#774,#201);
#141=LINE('',#776,#202);
#142=LINE('',#778,#203);
#143=LINE('',#779,#204);
#144=LINE('',#782,#205);
#145=LINE('',#784,#206);
#146=LINE('',#786,#207);
#147=LINE('',#787,#208);
#148=LINE('',#790,#209);
#149=LINE('',#792,#210);
#150=LINE('',#794,#211);
#151=LINE('',#795,#212);
#152=LINE('',#799,#213);
#153=LINE('',#801,#214);
#154=LINE('',#803,#215);
#155=LINE('',#804,#216);
#156=LINE('',#807,#217);
#157=LINE('',#809,#218);
#158=LINE('',#810,#219);
#159=LINE('',#812,#220);
#160=LINE('',#813,#221);
#161=LINE('',#815,#222);
#162=LINE('',#818,#223);
#163=LINE('',#820,#224);
#164=LINE('',#822,#225);
#165=LINE('',#823,#226);
#166=LINE('',#837,#227);
#167=LINE('',#839,#228);
#168=LINE('',#840,#229);
#169=LINE('',#843,#230);
#170=LINE('',#844,#231);
#171=LINE('',#847,#232);
#172=LINE('',#848,#233);
#173=LINE('',#850,#234);
#174=LINE('',#854,#235);
#175=LINE('',#856,#236);
#176=LINE('',#857,#237);
#177=LINE('',#860,#238);
#178=LINE('',#861,#239);
#179=LINE('',#864,#240);
#180=LINE('',#865,#241);
#181=LINE('',#867,#242);
#182=VECTOR('',#601,10.);
#183=VECTOR('',#602,10.);
#184=VECTOR('',#603,10.);
#185=VECTOR('',#604,10.);
#186=VECTOR('',#607,10.);
#187=VECTOR('',#608,10.);
#188=VECTOR('',#609,10.);
#189=VECTOR('',#612,10.);
#190=VECTOR('',#613,10.);
#191=VECTOR('',#614,10.);
#192=VECTOR('',#617,10.);
#193=VECTOR('',#618,10.);
#194=VECTOR('',#621,10.);
#195=VECTOR('',#624,10.);
#196=VECTOR('',#627,10.);
#197=VECTOR('',#628,10.);
#198=VECTOR('',#629,10.);
#199=VECTOR('',#630,10.);
#200=VECTOR('',#631,10.);
#201=VECTOR('',#632,10.);
#202=VECTOR('',#633,10.);
#203=VECTOR('',#634,10.);
#204=VECTOR('',#635,10.);
#205=VECTOR('',#636,10.);
#206=VECTOR('',#637,10.);
#207=VECTOR('',#638,10.);
#208=VECTOR('',#639,10.);
#209=VECTOR('',#640,10.);
#210=VECTOR('',#641,10.);
#211=VECTOR('',#642,10.);
#212=VECTOR('',#643,10.);
#213=VECTOR('',#646,10.);
#214=VECTOR('',#647,10.);
#215=VECTOR('',#648,10.);
#216=VECTOR('',#649,10.);
#217=VECTOR('',#652,10.);
#218=VECTOR('',#653,10.);
#219=VECTOR('',#654,10.);
#220=VECTOR('',#657,10.);
#221=VECTOR('',#658,10.);
#222=VECTOR('',#661,10.);
#223=VECTOR('',#664,10.);
#224=VECTOR('',#665,10.);
#225=VECTOR('',#666,10.);
#226=VECTOR('',#667,10.);
#227=VECTOR('',#692,10.);
#228=VECTOR('',#693,10.);
#229=VECTOR('',#694,10.);
#230=VECTOR('',#697,10.);
#231=VECTOR('',#698,10.);
#232=VECTOR('',#701,10.);
#233=VECTOR('',#702,10.);
#234=VECTOR('',#705,10.);
#235=VECTOR('',#710,10.);
#236=VECTOR('',#711,10.);
#237=VECTOR('',#712,10.);
#238=VECTOR('',#715,10.);
#239=VECTOR('',#716,10.);
#240=VECTOR('',#719,10.);
#241=VECTOR('',#720,10.);
#242=VECTOR('',#723,10.);
#243=VERTEX_POINT('',#732);
#244=VERTEX_POINT('',#733);
#245=VERTEX_POINT('',#735);
#246=VERTEX_POINT('',#737);
#247=VERTEX_POINT('',#741);
#248=VERTEX_POINT('',#743);
#249=VERTEX_POINT('',#747);
#250=VERTEX_POINT('',#749);
#251=VERTEX_POINT('',#753);
#252=VERTEX_POINT('',#757);
#253=VERTEX_POINT('',#759);
#254=VERTEX_POINT('',#763);
#255=VERTEX_POINT('',#765);
#256=VERTEX_POINT('',#767);
#257=VERTEX_POINT('',#769);
#258=VERTEX_POINT('',#771);
#259=VERTEX_POINT('',#773);
#260=VERTEX_POINT('',#775);
#261=VERTEX_POINT('',#777);
#262=VERTEX_POINT('',#780);
#263=VERTEX_POINT('',#781);
#264=VERTEX_POINT('',#783);
#265=VERTEX_POINT('',#785);
#266=VERTEX_POINT('',#788);
#267=VERTEX_POINT('',#789);
#268=VERTEX_POINT('',#791);
#269=VERTEX_POINT('',#793);
#270=VERTEX_POINT('',#797);
#271=VERTEX_POINT('',#798);
#272=VERTEX_POINT('',#800);
#273=VERTEX_POINT('',#802);
#274=VERTEX_POINT('',#806);
#275=VERTEX_POINT('',#808);
#276=VERTEX_POINT('',#817);
#277=VERTEX_POINT('',#819);
#278=VERTEX_POINT('',#821);
#279=VERTEX_POINT('',#836);
#280=VERTEX_POINT('',#838);
#281=VERTEX_POINT('',#842);
#282=VERTEX_POINT('',#846);
#283=VERTEX_POINT('',#853);
#284=VERTEX_POINT('',#855);
#285=VERTEX_POINT('',#859);
#286=VERTEX_POINT('',#863);
#287=EDGE_CURVE('',#243,#244,#121,.T.);
#288=EDGE_CURVE('',#243,#245,#122,.T.);
#289=EDGE_CURVE('',#245,#246,#123,.T.);
#290=EDGE_CURVE('',#244,#246,#124,.T.);
#291=EDGE_CURVE('',#247,#243,#125,.T.);
#292=EDGE_CURVE('',#248,#247,#126,.T.);
#293=EDGE_CURVE('',#248,#245,#127,.T.);
#294=EDGE_CURVE('',#244,#249,#128,.T.);
#295=EDGE_CURVE('',#246,#250,#129,.T.);
#296=EDGE_CURVE('',#249,#250,#130,.T.);
#297=EDGE_CURVE('',#251,#248,#131,.T.);
#298=EDGE_CURVE('',#250,#251,#132,.T.);
#299=EDGE_CURVE('',#249,#252,#133,.T.);
#300=EDGE_CURVE('',#252,#253,#57,.T.);
#301=EDGE_CURVE('',#247,#253,#134,.T.);
#302=EDGE_CURVE('',#254,#251,#135,.T.);
#303=EDGE_CURVE('',#254,#255,#136,.T.);
#304=EDGE_CURVE('',#255,#256,#137,.T.);
#305=EDGE_CURVE('',#257,#256,#138,.T.);
#306=EDGE_CURVE('',#257,#258,#139,.T.);
#307=EDGE_CURVE('',#259,#258,#140,.T.);
#308=EDGE_CURVE('',#260,#259,#141,.T.);
#309=EDGE_CURVE('',#261,#260,#142,.T.);
#310=EDGE_CURVE('',#261,#252,#143,.T.);
#311=EDGE_CURVE('',#262,#263,#144,.T.);
#312=EDGE_CURVE('',#263,#264,#145,.T.);
#313=EDGE_CURVE('',#264,#265,#146,.T.);
#314=EDGE_CURVE('',#265,#262,#147,.T.);
#315=EDGE_CURVE('',#266,#267,#148,.T.);
#316=EDGE_CURVE('',#267,#268,#149,.T.);
#317=EDGE_CURVE('',#268,#269,#150,.T.);
#318=EDGE_CURVE('',#269,#266,#151,.T.);
#319=EDGE_CURVE('',#270,#271,#152,.T.);
#320=EDGE_CURVE('',#270,#272,#153,.T.);
#321=EDGE_CURVE('',#272,#273,#154,.T.);
#322=EDGE_CURVE('',#271,#273,#155,.T.);
#323=EDGE_CURVE('',#274,#270,#156,.T.);
#324=EDGE_CURVE('',#274,#275,#157,.T.);
#325=EDGE_CURVE('',#275,#272,#158,.T.);
#326=EDGE_CURVE('',#256,#274,#159,.T.);
#327=EDGE_CURVE('',#255,#275,#160,.T.);
#328=EDGE_CURVE('',#273,#254,#161,.T.);
#329=EDGE_CURVE('',#276,#253,#162,.T.);
#330=EDGE_CURVE('',#277,#276,#163,.T.);
#331=EDGE_CURVE('',#278,#277,#164,.T.);
#332=EDGE_CURVE('',#271,#278,#165,.T.);
#333=EDGE_CURVE('',#260,#276,#58,.T.);
#334=EDGE_CURVE('',#277,#259,#59,.T.);
#335=EDGE_CURVE('',#277,#258,#60,.T.);
#336=EDGE_CURVE('',#261,#276,#61,.T.);
#337=EDGE_CURVE('',#278,#257,#62,.T.);
#338=EDGE_CURVE('',#262,#279,#166,.T.);
#339=EDGE_CURVE('',#280,#279,#167,.T.);
#340=EDGE_CURVE('',#263,#280,#168,.T.);
#341=EDGE_CURVE('',#281,#280,#169,.T.);
#342=EDGE_CURVE('',#264,#281,#170,.T.);
#343=EDGE_CURVE('',#282,#281,#171,.T.);
#344=EDGE_CURVE('',#265,#282,#172,.T.);
#345=EDGE_CURVE('',#279,#282,#173,.T.);
#346=EDGE_CURVE('',#266,#283,#174,.T.);
#347=EDGE_CURVE('',#284,#283,#175,.T.);
#348=EDGE_CURVE('',#267,#284,#176,.T.);
#349=EDGE_CURVE('',#285,#284,#177,.T.);
#350=EDGE_CURVE('',#268,#285,#178,.T.);
#351=EDGE_CURVE('',#286,#285,#179,.T.);
#352=EDGE_CURVE('',#269,#286,#180,.T.);
#353=EDGE_CURVE('',#283,#286,#181,.T.);
#354=ORIENTED_EDGE('',*,*,#287,.F.);
#355=ORIENTED_EDGE('',*,*,#288,.T.);
#356=ORIENTED_EDGE('',*,*,#289,.T.);
#357=ORIENTED_EDGE('',*,*,#290,.F.);
#358=ORIENTED_EDGE('',*,*,#291,.F.);
#359=ORIENTED_EDGE('',*,*,#292,.F.);
#360=ORIENTED_EDGE('',*,*,#293,.T.);
#361=ORIENTED_EDGE('',*,*,#288,.F.);
#362=ORIENTED_EDGE('',*,*,#294,.F.);
#363=ORIENTED_EDGE('',*,*,#290,.T.);
#364=ORIENTED_EDGE('',*,*,#295,.T.);
#365=ORIENTED_EDGE('',*,*,#296,.F.);
#366=ORIENTED_EDGE('',*,*,#295,.F.);
#367=ORIENTED_EDGE('',*,*,#289,.F.);
#368=ORIENTED_EDGE('',*,*,#293,.F.);
#369=ORIENTED_EDGE('',*,*,#297,.F.);
#370=ORIENTED_EDGE('',*,*,#298,.F.);
#371=ORIENTED_EDGE('',*,*,#291,.T.);
#372=ORIENTED_EDGE('',*,*,#287,.T.);
#373=ORIENTED_EDGE('',*,*,#294,.T.);
#374=ORIENTED_EDGE('',*,*,#299,.T.);
#375=ORIENTED_EDGE('',*,*,#300,.T.);
#376=ORIENTED_EDGE('',*,*,#301,.F.);
#377=ORIENTED_EDGE('',*,*,#296,.T.);
#378=ORIENTED_EDGE('',*,*,#298,.T.);
#379=ORIENTED_EDGE('',*,*,#302,.F.);
#380=ORIENTED_EDGE('',*,*,#303,.T.);
#381=ORIENTED_EDGE('',*,*,#304,.T.);
#382=ORIENTED_EDGE('',*,*,#305,.F.);
#383=ORIENTED_EDGE('',*,*,#306,.T.);
#384=ORIENTED_EDGE('',*,*,#307,.F.);
#385=ORIENTED_EDGE('',*,*,#308,.F.);
#386=ORIENTED_EDGE('',*,*,#309,.F.);
#387=ORIENTED_EDGE('',*,*,#310,.T.);
#388=ORIENTED_EDGE('',*,*,#299,.F.);
#389=ORIENTED_EDGE('',*,*,#311,.T.);
#390=ORIENTED_EDGE('',*,*,#312,.T.);
#391=ORIENTED_EDGE('',*,*,#313,.T.);
#392=ORIENTED_EDGE('',*,*,#314,.T.);
#393=ORIENTED_EDGE('',*,*,#315,.T.);
#394=ORIENTED_EDGE('',*,*,#316,.T.);
#395=ORIENTED_EDGE('',*,*,#317,.T.);
#396=ORIENTED_EDGE('',*,*,#318,.T.);
#397=ORIENTED_EDGE('',*,*,#319,.F.);
#398=ORIENTED_EDGE('',*,*,#320,.T.);
#399=ORIENTED_EDGE('',*,*,#321,.T.);
#400=ORIENTED_EDGE('',*,*,#322,.F.);
#401=ORIENTED_EDGE('',*,*,#323,.F.);
#402=ORIENTED_EDGE('',*,*,#324,.T.);
#403=ORIENTED_EDGE('',*,*,#325,.T.);
#404=ORIENTED_EDGE('',*,*,#320,.F.);
#405=ORIENTED_EDGE('',*,*,#326,.F.);
#406=ORIENTED_EDGE('',*,*,#304,.F.);
#407=ORIENTED_EDGE('',*,*,#327,.T.);
#408=ORIENTED_EDGE('',*,*,#324,.F.);
#409=ORIENTED_EDGE('',*,*,#327,.F.);
#410=ORIENTED_EDGE('',*,*,#303,.F.);
#411=ORIENTED_EDGE('',*,*,#328,.F.);
#412=ORIENTED_EDGE('',*,*,#321,.F.);
#413=ORIENTED_EDGE('',*,*,#325,.F.);
#414=ORIENTED_EDGE('',*,*,#292,.T.);
#415=ORIENTED_EDGE('',*,*,#301,.T.);
#416=ORIENTED_EDGE('',*,*,#329,.F.);
#417=ORIENTED_EDGE('',*,*,#330,.F.);
#418=ORIENTED_EDGE('',*,*,#331,.F.);
#419=ORIENTED_EDGE('',*,*,#332,.F.);
#420=ORIENTED_EDGE('',*,*,#322,.T.);
#421=ORIENTED_EDGE('',*,*,#328,.T.);
#422=ORIENTED_EDGE('',*,*,#302,.T.);
#423=ORIENTED_EDGE('',*,*,#297,.T.);
#424=ORIENTED_EDGE('',*,*,#333,.F.);
#425=ORIENTED_EDGE('',*,*,#308,.T.);
#426=ORIENTED_EDGE('',*,*,#334,.F.);
#427=ORIENTED_EDGE('',*,*,#330,.T.);
#428=ORIENTED_EDGE('',*,*,#334,.T.);
#429=ORIENTED_EDGE('',*,*,#307,.T.);
#430=ORIENTED_EDGE('',*,*,#335,.F.);
#431=ORIENTED_EDGE('',*,*,#333,.T.);
#432=ORIENTED_EDGE('',*,*,#336,.F.);
#433=ORIENTED_EDGE('',*,*,#309,.T.);
#434=ORIENTED_EDGE('',*,*,#336,.T.);
#435=ORIENTED_EDGE('',*,*,#329,.T.);
#436=ORIENTED_EDGE('',*,*,#300,.F.);
#437=ORIENTED_EDGE('',*,*,#310,.F.);
#438=ORIENTED_EDGE('',*,*,#335,.T.);
#439=ORIENTED_EDGE('',*,*,#306,.F.);
#440=ORIENTED_EDGE('',*,*,#337,.F.);
#441=ORIENTED_EDGE('',*,*,#331,.T.);
#442=ORIENTED_EDGE('',*,*,#319,.T.);
#443=ORIENTED_EDGE('',*,*,#332,.T.);
#444=ORIENTED_EDGE('',*,*,#337,.T.);
#445=ORIENTED_EDGE('',*,*,#305,.T.);
#446=ORIENTED_EDGE('',*,*,#326,.T.);
#447=ORIENTED_EDGE('',*,*,#323,.T.);
#448=ORIENTED_EDGE('',*,*,#311,.F.);
#449=ORIENTED_EDGE('',*,*,#338,.T.);
#450=ORIENTED_EDGE('',*,*,#339,.F.);
#451=ORIENTED_EDGE('',*,*,#340,.F.);
#452=ORIENTED_EDGE('',*,*,#312,.F.);
#453=ORIENTED_EDGE('',*,*,#340,.T.);
#454=ORIENTED_EDGE('',*,*,#341,.F.);
#455=ORIENTED_EDGE('',*,*,#342,.F.);
#456=ORIENTED_EDGE('',*,*,#313,.F.);
#457=ORIENTED_EDGE('',*,*,#342,.T.);
#458=ORIENTED_EDGE('',*,*,#343,.F.);
#459=ORIENTED_EDGE('',*,*,#344,.F.);
#460=ORIENTED_EDGE('',*,*,#314,.F.);
#461=ORIENTED_EDGE('',*,*,#344,.T.);
#462=ORIENTED_EDGE('',*,*,#345,.F.);
#463=ORIENTED_EDGE('',*,*,#338,.F.);
#464=ORIENTED_EDGE('',*,*,#345,.T.);
#465=ORIENTED_EDGE('',*,*,#343,.T.);
#466=ORIENTED_EDGE('',*,*,#341,.T.);
#467=ORIENTED_EDGE('',*,*,#339,.T.);
#468=ORIENTED_EDGE('',*,*,#315,.F.);
#469=ORIENTED_EDGE('',*,*,#346,.T.);
#470=ORIENTED_EDGE('',*,*,#347,.F.);
#471=ORIENTED_EDGE('',*,*,#348,.F.);
#472=ORIENTED_EDGE('',*,*,#316,.F.);
#473=ORIENTED_EDGE('',*,*,#348,.T.);
#474=ORIENTED_EDGE('',*,*,#349,.F.);
#475=ORIENTED_EDGE('',*,*,#350,.F.);
#476=ORIENTED_EDGE('',*,*,#317,.F.);
#477=ORIENTED_EDGE('',*,*,#350,.T.);
#478=ORIENTED_EDGE('',*,*,#351,.F.);
#479=ORIENTED_EDGE('',*,*,#352,.F.);
#480=ORIENTED_EDGE('',*,*,#318,.F.);
#481=ORIENTED_EDGE('',*,*,#352,.T.);
#482=ORIENTED_EDGE('',*,*,#353,.F.);
#483=ORIENTED_EDGE('',*,*,#346,.F.);
#484=ORIENTED_EDGE('',*,*,#353,.T.);
#485=ORIENTED_EDGE('',*,*,#351,.T.);
#486=ORIENTED_EDGE('',*,*,#349,.T.);
#487=ORIENTED_EDGE('',*,*,#347,.T.);
#488=PLANE('',#562);
#489=PLANE('',#563);
#490=PLANE('',#564);
#491=PLANE('',#565);
#492=PLANE('',#566);
#493=PLANE('',#568);
#494=PLANE('',#569);
#495=PLANE('',#570);
#496=PLANE('',#571);
#497=PLANE('',#572);
#498=PLANE('',#573);
#499=PLANE('',#577);
#500=PLANE('',#579);
#501=PLANE('',#584);
#502=PLANE('',#585);
#503=PLANE('',#586);
#504=PLANE('',#587);
#505=PLANE('',#588);
#506=PLANE('',#589);
#507=PLANE('',#590);
#508=PLANE('',#591);
#509=PLANE('',#592);
#510=PLANE('',#593);
#511=PLANE('',#594);
#512=ADVANCED_FACE('',(#65),#488,.F.);
#513=ADVANCED_FACE('',(#66),#489,.F.);
#514=ADVANCED_FACE('',(#67),#490,.F.);
#515=ADVANCED_FACE('',(#68),#491,.F.);
#516=ADVANCED_FACE('',(#69),#492,.T.);
#517=ADVANCED_FACE('',(#70,#55,#56),#493,.F.);
#518=ADVANCED_FACE('',(#71),#494,.F.);
#519=ADVANCED_FACE('',(#72),#495,.F.);
#520=ADVANCED_FACE('',(#73),#496,.F.);
#521=ADVANCED_FACE('',(#74),#497,.F.);
#522=ADVANCED_FACE('',(#75),#498,.T.);
#523=ADVANCED_FACE('',(#76),#52,.F.);
#524=ADVANCED_FACE('',(#77),#499,.T.);
#525=ADVANCED_FACE('',(#78),#500,.T.);
#526=ADVANCED_FACE('',(#79),#53,.F.);
#527=ADVANCED_FACE('',(#80),#54,.F.);
#528=ADVANCED_FACE('',(#81),#501,.T.);
#529=ADVANCED_FACE('',(#82),#502,.T.);
#530=ADVANCED_FACE('',(#83),#503,.T.);
#531=ADVANCED_FACE('',(#84),#504,.T.);
#532=ADVANCED_FACE('',(#85),#505,.T.);
#533=ADVANCED_FACE('',(#86),#506,.T.);
#534=ADVANCED_FACE('',(#87),#507,.T.);
#535=ADVANCED_FACE('',(#88),#508,.T.);
#536=ADVANCED_FACE('',(#89),#509,.T.);
#537=ADVANCED_FACE('',(#90),#510,.T.);
#538=ADVANCED_FACE('',(#91),#511,.T.);
#539=CLOSED_SHELL('',(#512,#513,#514,#515,#516,#517,#518,#519,#520,#521,
#522,#523,#524,#525,#526,#527,#528,#529,#530,#531,#532,#533,#534,#535,#536,
#537,#538));
#540=DERIVED_UNIT_ELEMENT(#543,1.);
#541=DERIVED_UNIT_ELEMENT(#917,-3.);
#542=DIMENSIONAL_EXPONENTS(0.,1.,0.,0.,0.,0.,0.);
#543=(
CONVERSION_BASED_UNIT('gram',#545)
MASS_UNIT()
NAMED_UNIT(#542)
);
#544=(
MASS_UNIT()
NAMED_UNIT(*)
SI_UNIT(.KILO.,.GRAM.)
);
#545=MASS_MEASURE_WITH_UNIT(MASS_MEASURE(0.001),#544);
#546=DERIVED_UNIT((#540,#541));
#547=MEASURE_REPRESENTATION_ITEM('density measure',
POSITIVE_RATIO_MEASURE(1.),#546);
#548=PROPERTY_DEFINITION_REPRESENTATION(#553,#550);
#549=PROPERTY_DEFINITION_REPRESENTATION(#554,#551);
#550=REPRESENTATION('material name',(#552),#914);
#551=REPRESENTATION('density',(#547),#914);
#552=DESCRIPTIVE_REPRESENTATION_ITEM('Generic','Generic');
#553=PROPERTY_DEFINITION('material property','material name',#924);
#554=PROPERTY_DEFINITION('material property','density of part',#924);
#555=DATE_TIME_ROLE('creation_date');
#556=APPLIED_DATE_AND_TIME_ASSIGNMENT(#557,#555,(#924));
#557=DATE_AND_TIME(#558,#559);
#558=CALENDAR_DATE(2026,18,5);
#559=LOCAL_TIME(0,0,0.,#560);
#560=COORDINATED_UNIVERSAL_TIME_OFFSET(0,0,.BEHIND.);
#561=AXIS2_PLACEMENT_3D('',#730,#597,#598);
#562=AXIS2_PLACEMENT_3D('',#731,#599,#600);
#563=AXIS2_PLACEMENT_3D('',#740,#605,#606);
#564=AXIS2_PLACEMENT_3D('',#746,#610,#611);
#565=AXIS2_PLACEMENT_3D('',#752,#615,#616);
#566=AXIS2_PLACEMENT_3D('',#756,#619,#620);
#567=AXIS2_PLACEMENT_3D('',#760,#622,#623);
#568=AXIS2_PLACEMENT_3D('',#762,#625,#626);
#569=AXIS2_PLACEMENT_3D('',#796,#644,#645);
#570=AXIS2_PLACEMENT_3D('',#805,#650,#651);
#571=AXIS2_PLACEMENT_3D('',#811,#655,#656);
#572=AXIS2_PLACEMENT_3D('',#814,#659,#660);
#573=AXIS2_PLACEMENT_3D('',#816,#662,#663);
#574=AXIS2_PLACEMENT_3D('',#824,#668,#669);
#575=AXIS2_PLACEMENT_3D('',#825,#670,#671);
#576=AXIS2_PLACEMENT_3D('',#826,#672,#673);
#577=AXIS2_PLACEMENT_3D('',#827,#674,#675);
#578=AXIS2_PLACEMENT_3D('',#828,#676,#677);
#579=AXIS2_PLACEMENT_3D('',#829,#678,#679);
#580=AXIS2_PLACEMENT_3D('',#830,#680,#681);
#581=AXIS2_PLACEMENT_3D('',#831,#682,#683);
#582=AXIS2_PLACEMENT_3D('',#832,#684,#685);
#583=AXIS2_PLACEMENT_3D('',#833,#686,#687);
#584=AXIS2_PLACEMENT_3D('',#834,#688,#689);
#585=AXIS2_PLACEMENT_3D('',#835,#690,#691);
#586=AXIS2_PLACEMENT_3D('',#841,#695,#696);
#587=AXIS2_PLACEMENT_3D('',#845,#699,#700);
#588=AXIS2_PLACEMENT_3D('',#849,#703,#704);
#589=AXIS2_PLACEMENT_3D('',#851,#706,#707);
#590=AXIS2_PLACEMENT_3D('',#852,#708,#709);
#591=AXIS2_PLACEMENT_3D('',#858,#713,#714);
#592=AXIS2_PLACEMENT_3D('',#862,#717,#718);
#593=AXIS2_PLACEMENT_3D('',#866,#721,#722);
#594=AXIS2_PLACEMENT_3D('',#868,#724,#725);
#595=AXIS2_PLACEMENT_3D('',#895,#726,#727);
#596=AXIS2_PLACEMENT_3D('',#898,#728,#729);
#597=DIRECTION('axis',(0.,0.,1.));
#598=DIRECTION('refdir',(1.,0.,0.));
#599=DIRECTION('center_axis',(0.707106781186548,0.707106781186548,0.));
#600=DIRECTION('ref_axis',(-0.707106781186548,0.707106781186548,0.));
#601=DIRECTION('',(-0.707106781186548,0.707106781186548,0.));
#602=DIRECTION('',(0.,0.,1.));
#603=DIRECTION('',(-0.707106781186548,0.707106781186548,0.));
#604=DIRECTION('',(0.,0.,1.));
#605=DIRECTION('center_axis',(1.,0.,0.));
#606=DIRECTION('ref_axis',(0.,1.,0.));
#607=DIRECTION('',(0.,1.,0.));
#608=DIRECTION('',(0.,0.,-1.));
#609=DIRECTION('',(0.,1.,0.));
#610=DIRECTION('center_axis',(0.,1.,0.));
#611=DIRECTION('ref_axis',(-1.,0.,0.));
#612=DIRECTION('',(-1.,0.,0.));
#613=DIRECTION('',(-1.,0.,0.));
#614=DIRECTION('',(0.,0.,1.));
#615=DIRECTION('center_axis',(0.,0.,1.));
#616=DIRECTION('ref_axis',(1.,0.,0.));
#617=DIRECTION('',(1.,0.,0.));
#618=DIRECTION('',(0.,-1.,0.));
#619=DIRECTION('center_axis',(0.,0.,-1.));
#620=DIRECTION('ref_axis',(0.,1.,0.));
#621=DIRECTION('',(0.,1.,0.));
#622=DIRECTION('center_axis',(0.,0.,1.));
#623=DIRECTION('ref_axis',(-1.,-2.82566022252447E-16,0.));
#624=DIRECTION('',(1.,0.,0.));
#625=DIRECTION('center_axis',(1.,0.,0.));
#626=DIRECTION('ref_axis',(0.,0.,-1.));
#627=DIRECTION('',(0.,0.,-1.));
#628=DIRECTION('',(0.,1.,0.));
#629=DIRECTION('',(0.,0.,1.));
#630=DIRECTION('',(0.,-1.,0.));
#631=DIRECTION('',(0.,0.,-1.));
#632=DIRECTION('',(0.,-1.,-2.22044604925031E-16));
#633=DIRECTION('',(0.,-1.28721510101467E-16,1.));
#634=DIRECTION('',(0.,1.,0.));
#635=DIRECTION('',(0.,0.,-1.));
#636=DIRECTION('',(0.,0.,-1.));
#637=DIRECTION('',(0.,1.,0.));
#638=DIRECTION('',(0.,0.,1.));
#639=DIRECTION('',(0.,-1.,0.));
#640=DIRECTION('',(0.,0.,-1.));
#641=DIRECTION('',(0.,1.,0.));
#642=DIRECTION('',(0.,0.,1.));
#643=DIRECTION('',(0.,-1.,0.));
#644=DIRECTION('center_axis',(1.,0.,0.));
#645=DIRECTION('ref_axis',(0.,-1.,0.));
#646=DIRECTION('',(0.,-1.,0.));
#647=DIRECTION('',(0.,0.,-1.));
#648=DIRECTION('',(0.,-1.,0.));
#649=DIRECTION('',(0.,0.,-1.));
#650=DIRECTION('center_axis',(0.707106781186548,0.707106781186548,0.));
#651=DIRECTION('ref_axis',(0.707106781186548,-0.707106781186548,0.));
#652=DIRECTION('',(0.707106781186548,-0.707106781186548,0.));
#653=DIRECTION('',(0.,0.,-1.));
#654=DIRECTION('',(0.707106781186548,-0.707106781186548,0.));
#655=DIRECTION('center_axis',(0.,1.,0.));
#656=DIRECTION('ref_axis',(1.,0.,0.));
#657=DIRECTION('',(1.,0.,0.));
#658=DIRECTION('',(1.,0.,0.));
#659=DIRECTION('center_axis',(0.,0.,-1.));
#660=DIRECTION('ref_axis',(-1.,0.,0.));
#661=DIRECTION('',(-1.,0.,0.));
#662=DIRECTION('center_axis',(0.,-1.,0.));
#663=DIRECTION('ref_axis',(0.,0.,-1.));
#664=DIRECTION('',(0.,0.,-1.));
#665=DIRECTION('',(0.,0.,-1.));
#666=DIRECTION('',(0.,0.,-1.));
#667=DIRECTION('',(1.,0.,0.));
#668=DIRECTION('center_axis',(0.,2.30396477224416E-16,-1.));
#669=DIRECTION('ref_axis',(-1.,-3.7926548739118E-17,-8.73814322277291E-33));
#670=DIRECTION('center_axis',(0.,0.,1.));
#671=DIRECTION('ref_axis',(-1.,-3.7926548739118E-17,-8.73814322277291E-33));
#672=DIRECTION('center_axis',(0.,2.22044604925031E-16,-1.));
#673=DIRECTION('ref_axis',(-1.,-3.7926548739118E-17,-8.73814322277291E-33));
#674=DIRECTION('center_axis',(0.,-2.22044604925031E-16,1.));
#675=DIRECTION('ref_axis',(0.,-1.,-2.22044604925031E-16));
#676=DIRECTION('center_axis',(0.,2.22044604925031E-16,-1.));
#677=DIRECTION('ref_axis',(-1.,-2.82566022252447E-16,0.));
#678=DIRECTION('center_axis',(0.,0.,-1.));
#679=DIRECTION('ref_axis',(0.,1.,0.));
#680=DIRECTION('center_axis',(0.,0.,1.));
#681=DIRECTION('ref_axis',(-1.,-2.82566022252447E-16,0.));
#682=DIRECTION('center_axis',(0.,0.,-1.));
#683=DIRECTION('ref_axis',(-1.,-2.82566022252447E-16,0.));
#684=DIRECTION('center_axis',(0.,0.,-1.));
#685=DIRECTION('ref_axis',(-1.,-2.82566022252447E-16,0.));
#686=DIRECTION('center_axis',(0.,0.,-1.));
#687=DIRECTION('ref_axis',(-1.,-2.82566022252447E-16,0.));
#688=DIRECTION('center_axis',(0.,0.,1.));
#689=DIRECTION('ref_axis',(0.,-1.,0.));
#690=DIRECTION('center_axis',(0.,-1.,0.));
#691=DIRECTION('ref_axis',(0.,0.,1.));
#692=DIRECTION('',(-1.,0.,0.));
#693=DIRECTION('',(0.,0.,1.));
#694=DIRECTION('',(-1.,0.,0.));
#695=DIRECTION('center_axis',(0.,0.,-1.));
#696=DIRECTION('ref_axis',(0.,-1.,0.));
#697=DIRECTION('',(0.,-1.,0.));
#698=DIRECTION('',(-1.,0.,0.));
#699=DIRECTION('center_axis',(0.,1.,0.));
#700=DIRECTION('ref_axis',(0.,0.,-1.));
#701=DIRECTION('',(0.,0.,-1.));
#702=DIRECTION('',(-1.,0.,0.));
#703=DIRECTION('center_axis',(0.,0.,1.));
#704=DIRECTION('ref_axis',(0.,1.,0.));
#705=DIRECTION('',(0.,1.,0.));
#706=DIRECTION('center_axis',(-1.,0.,0.));
#707=DIRECTION('ref_axis',(0.,0.,1.));
#708=DIRECTION('center_axis',(0.,-1.,0.));
#709=DIRECTION('ref_axis',(0.,0.,1.));
#710=DIRECTION('',(-1.,0.,0.));
#711=DIRECTION('',(0.,0.,1.));
#712=DIRECTION('',(-1.,0.,0.));
#713=DIRECTION('center_axis',(0.,0.,-1.));
#714=DIRECTION('ref_axis',(0.,-1.,0.));
#715=DIRECTION('',(0.,-1.,0.));
#716=DIRECTION('',(-1.,0.,0.));
#717=DIRECTION('center_axis',(0.,1.,0.));
#718=DIRECTION('ref_axis',(0.,0.,-1.));
#719=DIRECTION('',(0.,0.,-1.));
#720=DIRECTION('',(-1.,0.,0.));
#721=DIRECTION('center_axis',(0.,0.,1.));
#722=DIRECTION('ref_axis',(0.,1.,0.));
#723=DIRECTION('',(0.,1.,0.));
#724=DIRECTION('center_axis',(-1.,0.,0.));
#725=DIRECTION('ref_axis',(0.,0.,1.));
#726=DIRECTION('center_axis',(0.,0.,1.));
#727=DIRECTION('ref_axis',(1.,0.,0.));
#728=DIRECTION('center_axis',(0.,0.,1.));
#729=DIRECTION('ref_axis',(1.,0.,0.));
#730=CARTESIAN_POINT('',(0.,0.,0.));
#731=CARTESIAN_POINT('Origin',(10.,-4.5,-34.5));
#732=CARTESIAN_POINT('',(10.,-4.5,-34.5));
#733=CARTESIAN_POINT('',(5.,0.500000000000003,-34.5));
#734=CARTESIAN_POINT('',(14.5,-9.,-34.5));
#735=CARTESIAN_POINT('',(10.,-4.5,-19.5));
#736=CARTESIAN_POINT('',(10.,-4.5,-34.5));
#737=CARTESIAN_POINT('',(5.,0.500000000000003,-19.5));
#738=CARTESIAN_POINT('',(5.,0.500000000000003,-19.5));
#739=CARTESIAN_POINT('',(5.,0.500000000000003,-34.5));
#740=CARTESIAN_POINT('Origin',(10.,-32.5,-34.5));
#741=CARTESIAN_POINT('',(10.,-32.5,-34.5));
#742=CARTESIAN_POINT('',(10.,-32.5,-34.5));
#743=CARTESIAN_POINT('',(10.,-32.5,-19.5));
#744=CARTESIAN_POINT('',(10.,-32.5,0.));
#745=CARTESIAN_POINT('',(10.,0.500000000000003,-19.5));
#746=CARTESIAN_POINT('Origin',(5.,0.500000000000003,-34.5));
#747=CARTESIAN_POINT('',(0.,0.500000000000003,-34.5));
#748=CARTESIAN_POINT('',(2.5,0.500000000000003,-34.5));
#749=CARTESIAN_POINT('',(0.,0.500000000000003,-19.5));
#750=CARTESIAN_POINT('',(0.,0.500000000000003,-19.5));
#751=CARTESIAN_POINT('',(0.,0.500000000000003,-17.25));
#752=CARTESIAN_POINT('Origin',(5.,-16.,-19.5));
#753=CARTESIAN_POINT('',(0.,-32.5,-19.5));
#754=CARTESIAN_POINT('',(2.5,-32.5,-19.5));
#755=CARTESIAN_POINT('',(0.,4.5,-19.5));
#756=CARTESIAN_POINT('Origin',(0.,-32.5,-34.5));
#757=CARTESIAN_POINT('',(0.,40.,-34.5));
#758=CARTESIAN_POINT('',(0.,0.,-34.5));
#759=CARTESIAN_POINT('',(34.,-32.5,-34.5));
#760=CARTESIAN_POINT('Origin',(94.297794117647,40.,-34.5));
#761=CARTESIAN_POINT('',(0.,-32.5,-34.5));
#762=CARTESIAN_POINT('Origin',(0.,25.,0.));
#763=CARTESIAN_POINT('',(0.,-32.5,19.5));
#764=CARTESIAN_POINT('',(0.,-32.5,34.5));
#765=CARTESIAN_POINT('',(0.,0.500000000000003,19.5));
#766=CARTESIAN_POINT('',(0.,4.5,19.5));
#767=CARTESIAN_POINT('',(0.,0.500000000000003,34.5));
#768=CARTESIAN_POINT('',(0.,0.500000000000003,17.25));
#769=CARTESIAN_POINT('',(0.,40.,34.5));
#770=CARTESIAN_POINT('',(0.,50.,34.5));
#771=CARTESIAN_POINT('',(0.,40.,12.85));
#772=CARTESIAN_POINT('',(0.,40.,34.5));
#773=CARTESIAN_POINT('',(0.,50.,12.85));
#774=CARTESIAN_POINT('',(0.,50.,12.85));
#775=CARTESIAN_POINT('',(0.,50.,-12.85));
#776=CARTESIAN_POINT('',(0.,50.,-34.5));
#777=CARTESIAN_POINT('',(0.,40.,-12.85));
#778=CARTESIAN_POINT('',(0.,-32.5,-12.85));
#779=CARTESIAN_POINT('',(0.,40.,34.5));
#780=CARTESIAN_POINT('',(0.,4.,29.5));
#781=CARTESIAN_POINT('',(0.,4.,17.85));
#782=CARTESIAN_POINT('',(0.,4.,8.925));
#783=CARTESIAN_POINT('',(0.,10.,17.85));
#784=CARTESIAN_POINT('',(0.,17.5,17.85));
#785=CARTESIAN_POINT('',(0.,10.,29.5));
#786=CARTESIAN_POINT('',(0.,10.,14.75));
#787=CARTESIAN_POINT('',(0.,14.5,29.5));
#788=CARTESIAN_POINT('',(0.,4.,-17.85));
#789=CARTESIAN_POINT('',(0.,4.,-29.5));
#790=CARTESIAN_POINT('',(0.,4.,-14.75));
#791=CARTESIAN_POINT('',(0.,10.,-29.5));
#792=CARTESIAN_POINT('',(0.,17.5,-29.5));
#793=CARTESIAN_POINT('',(0.,10.,-17.85));
#794=CARTESIAN_POINT('',(0.,10.,-8.925));
#795=CARTESIAN_POINT('',(0.,14.5,-17.85));
#796=CARTESIAN_POINT('Origin',(10.,-4.5,34.5));
#797=CARTESIAN_POINT('',(10.,-4.5,34.5));
#798=CARTESIAN_POINT('',(10.,-32.5,34.5));
#799=CARTESIAN_POINT('',(10.,22.75,34.5));
#800=CARTESIAN_POINT('',(10.,-4.5,19.5));
#801=CARTESIAN_POINT('',(10.,-4.5,34.5));
#802=CARTESIAN_POINT('',(10.,-32.5,19.5));
#803=CARTESIAN_POINT('',(10.,-32.5,19.5));
#804=CARTESIAN_POINT('',(10.,-32.5,34.5));
#805=CARTESIAN_POINT('Origin',(5.,0.500000000000004,34.5));
#806=CARTESIAN_POINT('',(5.,0.500000000000003,34.5));
#807=CARTESIAN_POINT('',(-8.625,14.125,34.5));
#808=CARTESIAN_POINT('',(5.,0.500000000000003,19.5));
#809=CARTESIAN_POINT('',(5.,0.500000000000003,34.5));
#810=CARTESIAN_POINT('',(10.,-4.5,19.5));
#811=CARTESIAN_POINT('Origin',(0.,0.500000000000003,34.5));
#812=CARTESIAN_POINT('',(0.,0.500000000000007,34.5));
#813=CARTESIAN_POINT('',(10.,0.500000000000003,19.5));
#814=CARTESIAN_POINT('Origin',(5.,-16.,19.5));
#815=CARTESIAN_POINT('',(2.5,-32.5,19.5));
#816=CARTESIAN_POINT('Origin',(0.,-32.5,34.5));
#817=CARTESIAN_POINT('',(34.,-32.5,-12.85));
#818=CARTESIAN_POINT('',(34.,-32.5,34.5));
#819=CARTESIAN_POINT('',(34.,-32.5,12.85));
#820=CARTESIAN_POINT('',(34.,-32.5,34.5));
#821=CARTESIAN_POINT('',(34.,-32.5,34.5));
#822=CARTESIAN_POINT('',(34.,-32.5,34.5));
#823=CARTESIAN_POINT('',(0.,-32.5,34.5));
#824=CARTESIAN_POINT('Origin',(117.091911764706,50.,12.85));
#825=CARTESIAN_POINT('Origin',(117.091911764706,50.,-12.85));
#826=CARTESIAN_POINT('Origin',(117.091911764706,50.,12.85));
#827=CARTESIAN_POINT('Origin',(0.,50.,12.85));
#828=CARTESIAN_POINT('Origin',(94.297794117647,40.,12.85));
#829=CARTESIAN_POINT('Origin',(0.,-32.5,-12.85));
#830=CARTESIAN_POINT('Origin',(94.297794117647,40.,-12.85));
#831=CARTESIAN_POINT('Origin',(94.297794117647,40.,34.5));
#832=CARTESIAN_POINT('Origin',(94.297794117647,40.,34.5));
#833=CARTESIAN_POINT('Origin',(94.297794117647,40.,34.5));
#834=CARTESIAN_POINT('Origin',(0.,50.,34.5));
#835=CARTESIAN_POINT('Origin',(0.,4.,17.85));
#836=CARTESIAN_POINT('',(-10.,4.,29.5));
#837=CARTESIAN_POINT('',(0.,4.,29.5));
#838=CARTESIAN_POINT('',(-10.,4.,17.85));
#839=CARTESIAN_POINT('',(-10.,4.,29.5));
#840=CARTESIAN_POINT('',(0.,4.,17.85));
#841=CARTESIAN_POINT('Origin',(0.,10.,17.85));
#842=CARTESIAN_POINT('',(-10.,10.,17.85));
#843=CARTESIAN_POINT('',(-10.,0.,17.85));
#844=CARTESIAN_POINT('',(0.,10.,17.85));
#845=CARTESIAN_POINT('Origin',(0.,10.,29.5));
#846=CARTESIAN_POINT('',(-10.,10.,29.5));
#847=CARTESIAN_POINT('',(-10.,10.,17.85));
#848=CARTESIAN_POINT('',(0.,10.,29.5));
#849=CARTESIAN_POINT('Origin',(0.,4.,29.5));
#850=CARTESIAN_POINT('',(-10.,10.,29.5));
#851=CARTESIAN_POINT('Origin',(-10.,7.,23.675));
#852=CARTESIAN_POINT('Origin',(0.,4.,-29.5));
#853=CARTESIAN_POINT('',(-10.,4.,-17.85));
#854=CARTESIAN_POINT('',(0.,4.,-17.85));
#855=CARTESIAN_POINT('',(-10.,4.,-29.5));
#856=CARTESIAN_POINT('',(-10.,4.,-17.85));
#857=CARTESIAN_POINT('',(0.,4.,-29.5));
#858=CARTESIAN_POINT('Origin',(0.,10.,-29.5));
#859=CARTESIAN_POINT('',(-10.,10.,-29.5));
#860=CARTESIAN_POINT('',(-10.,4.,-29.5));
#861=CARTESIAN_POINT('',(0.,10.,-29.5));
#862=CARTESIAN_POINT('Origin',(0.,10.,-17.85));
#863=CARTESIAN_POINT('',(-10.,10.,-17.85));
#864=CARTESIAN_POINT('',(-10.,10.,-29.5));
#865=CARTESIAN_POINT('',(0.,10.,-17.85));
#866=CARTESIAN_POINT('Origin',(0.,4.,-17.85));
#867=CARTESIAN_POINT('',(-10.,10.,-17.85));
#868=CARTESIAN_POINT('Origin',(-10.,7.,-23.675));
#869=CARTESIAN_POINT('polyline point',(0.,50.,34.5));
#870=CARTESIAN_POINT('polyline point',(0.,-32.5,34.5));
#871=CARTESIAN_POINT('polyline point',(0.,-32.5,34.5));
#872=CARTESIAN_POINT('polyline point',(34.,-32.5,34.5));
#873=CARTESIAN_POINT('polyline point',(34.,50.,34.5));
#874=CARTESIAN_POINT('polyline point',(34.,-32.5,34.5));
#875=CARTESIAN_POINT('polyline point',(0.,50.,34.5));
#876=CARTESIAN_POINT('polyline point',(34.,50.,34.5));
#877=CARTESIAN_POINT('polyline point',(0.,-32.5,34.5));
#878=CARTESIAN_POINT('polyline point',(34.,-32.5,34.5));
#879=CARTESIAN_POINT('polyline point',(34.,-32.5,34.5));
#880=CARTESIAN_POINT('polyline point',(34.,50.,34.5));
#881=CARTESIAN_POINT('polyline point',(34.,50.,34.5));
#882=CARTESIAN_POINT('polyline point',(0.,50.,34.5));
#883=CARTESIAN_POINT('polyline point',(0.,50.,34.5));
#884=CARTESIAN_POINT('polyline point',(0.,-32.5,34.5));
#885=CARTESIAN_POINT('polyline point',(0.,-32.5,34.5));
#886=CARTESIAN_POINT('polyline point',(10.,-32.5,34.5));
#887=CARTESIAN_POINT('polyline point',(10.,-32.5,34.5));
#888=CARTESIAN_POINT('polyline point',(10.,0.500000000000003,34.5));
#889=CARTESIAN_POINT('polyline point',(10.,0.500000000000003,34.5));
#890=CARTESIAN_POINT('polyline point',(0.,0.500000000000003,34.5));
#891=CARTESIAN_POINT('polyline point',(0.,0.500000000000003,34.5));
#892=CARTESIAN_POINT('polyline point',(0.,-32.5,34.5));
#893=CARTESIAN_POINT('polyline point',(0.,50.,34.5));
#894=CARTESIAN_POINT('polyline point',(0.,40.,34.5));
#895=CARTESIAN_POINT('Origin',(94.297794117647,40.,34.5));
#896=CARTESIAN_POINT('',(-2.8421709430404E-14,40.,34.5));
#897=CARTESIAN_POINT('',(33.9999999999999,-32.4999999999999,34.5));
#898=CARTESIAN_POINT('Origin',(117.091911764706,50.,34.5));
#899=CARTESIAN_POINT('',(-2.8421709430404E-14,50.,34.5));
#900=CARTESIAN_POINT('',(34.,-32.5,34.5));
#901=CARTESIAN_POINT('polyline point',(10.,0.500000000000003,34.5));
#902=CARTESIAN_POINT('polyline point',(10.,-4.5,34.5));
#903=CARTESIAN_POINT('polyline point',(10.,-4.5,34.5));
#904=CARTESIAN_POINT('polyline point',(5.,0.500000000000003,34.5));
#905=CARTESIAN_POINT('',(0.,0.,34.5));
#906=CARTESIAN_POINT('',(0.,40.,34.5));
#907=CARTESIAN_POINT('',(8.67172346475449,0.499999999999998,34.5));
#908=CARTESIAN_POINT('',(10.,-2.26057124972334,34.5));
#909=CARTESIAN_POINT('',(34.,-32.5,34.5));
#910=CARTESIAN_POINT('',(0.,0.500000000000003,34.5));
#911=CARTESIAN_POINT('',(10.,-32.5,34.5));
#912=UNCERTAINTY_MEASURE_WITH_UNIT(LENGTH_MEASURE(0.01),#916,
'DISTANCE_ACCURACY_VALUE',
'Maximum model space distance between geometric entities at asserted c
onnectivities');
#913=UNCERTAINTY_MEASURE_WITH_UNIT(LENGTH_MEASURE(0.01),#916,
'DISTANCE_ACCURACY_VALUE',
'Maximum model space distance between geometric entities at asserted c
onnectivities');
#914=(
GEOMETRIC_REPRESENTATION_CONTEXT(3)
GLOBAL_UNCERTAINTY_ASSIGNED_CONTEXT((#912))
GLOBAL_UNIT_ASSIGNED_CONTEXT((#916,#918,#919))
REPRESENTATION_CONTEXT('','3D')
);
#915=(
GEOMETRIC_REPRESENTATION_CONTEXT(3)
GLOBAL_UNCERTAINTY_ASSIGNED_CONTEXT((#913))
GLOBAL_UNIT_ASSIGNED_CONTEXT((#916,#918,#919))
REPRESENTATION_CONTEXT('','3D')
);
#916=(
LENGTH_UNIT()
NAMED_UNIT(*)
SI_UNIT(.MILLI.,.METRE.)
);
#917=(
LENGTH_UNIT()
NAMED_UNIT(*)
SI_UNIT(.CENTI.,.METRE.)
);
#918=(
NAMED_UNIT(*)
PLANE_ANGLE_UNIT()
SI_UNIT($,.RADIAN.)
);
#919=(
NAMED_UNIT(*)
SI_UNIT($,.STERADIAN.)
SOLID_ANGLE_UNIT()
);
#920=SHAPE_DEFINITION_REPRESENTATION(#921,#922);
#921=PRODUCT_DEFINITION_SHAPE('',$,#924);
#922=SHAPE_REPRESENTATION('',(#561),#914);
#923=PRODUCT_DEFINITION_CONTEXT('part definition',#928,'design');
#924=PRODUCT_DEFINITION('Ramp','Ramp',#925,#923);
#925=PRODUCT_DEFINITION_FORMATION('',$,#930);
#926=PRODUCT_RELATED_PRODUCT_CATEGORY('Ramp','Ramp',(#930));
#927=APPLICATION_PROTOCOL_DEFINITION('international standard',
'automotive_design',2009,#928);
#928=APPLICATION_CONTEXT(
'Core Data for Automotive Mechanical Design Process');
#929=PRODUCT_CONTEXT('part definition',#928,'mechanical');
#930=PRODUCT('Ramp','Ramp',$,(#929));
#931=PRESENTATION_STYLE_ASSIGNMENT((#934));
#932=PRESENTATION_STYLE_ASSIGNMENT((#935));
#933=PRESENTATION_STYLE_ASSIGNMENT((#936));
#934=SURFACE_STYLE_USAGE(.BOTH.,#939);
#935=SURFACE_STYLE_USAGE(.BOTH.,#940);
#936=SURFACE_STYLE_USAGE(.BOTH.,#941);
#937=SURFACE_STYLE_RENDERING_WITH_PROPERTIES($,#951,(#938));
#938=SURFACE_STYLE_TRANSPARENT(0.);
#939=SURFACE_SIDE_STYLE('',(#942,#937));
#940=SURFACE_SIDE_STYLE('',(#943));
#941=SURFACE_SIDE_STYLE('',(#944));
#942=SURFACE_STYLE_FILL_AREA(#945);
#943=SURFACE_STYLE_FILL_AREA(#946);
#944=SURFACE_STYLE_FILL_AREA(#947);
#945=FILL_AREA_STYLE('',(#948));
#946=FILL_AREA_STYLE('',(#949));
#947=FILL_AREA_STYLE('',(#950));
#948=FILL_AREA_STYLE_COLOUR('',#951);
#949=FILL_AREA_STYLE_COLOUR('',#952);
#950=FILL_AREA_STYLE_COLOUR('',#953);
#951=COLOUR_RGB('',0.749019607843137,0.749019607843137,0.749019607843137);
#952=COLOUR_RGB('',0.913725490196078,0.913725490196078,0.);
#953=COLOUR_RGB('',1.,1.,1.);
ENDSEC;
END-ISO-10303-21;
